<svg width="130" height="50" viewBox="0 0 130 50" fill="none" xmlns="http://www.w3.org/2000/svg">
<g clip-path="url(#clip0_804_227)">
<path d="M23.4136 22.3379C23.4008 21.3196 23.1827 20.7959 22.7722 20.7668H20.5655C20.0395 20.825 19.7701 21.4941 19.7573 22.7161V31.7062C19.7701 32.9572 20.0652 33.5973 20.6425 33.6555H22.6567C22.862 33.6555 23.0416 33.4809 23.1827 33.1318C23.3238 32.87 23.4008 32.5208 23.4008 32.0844L23.4136 22.3379V22.3379ZM16.9348 21.0577C16.9476 18.8175 17.1657 17.1009 17.6019 15.9371C17.82 15.4425 18.1023 15.0352 18.4487 14.6861C18.8079 14.337 19.1415 14.1624 19.475 14.1624H23.5163C25.2996 14.1915 26.2104 16.4027 26.2361 20.7959V34.3247C26.2233 35.8958 25.9539 37.2341 25.4279 38.3688C24.9147 39.5616 24.2989 40.1726 23.5804 40.2017H19.7573V49.9482H16.9348V21.0577ZM31.355 32.3172C31.355 32.6954 31.432 32.9863 31.586 33.2191C31.7142 33.4809 31.8939 33.6264 32.0991 33.6264H34.2673C34.7548 33.6264 35.0114 33.19 35.0242 32.3172V30.4842C35.0242 29.4659 34.7676 28.9713 34.2416 28.9713H32.0863C31.8041 28.9713 31.6116 29.0877 31.4961 29.2914C31.3935 29.5241 31.3422 29.9896 31.3422 30.6879L31.355 32.3172V32.3172ZM35.0371 22.1633C35.0499 21.1741 34.7933 20.7086 34.2801 20.7377H28.5839V14.1624H34.9986C36.8717 14.2206 37.821 16.2863 37.8467 20.3304V34.121C37.8339 35.8667 37.5901 37.2923 37.1411 38.456C36.6664 39.6489 36.0506 40.2308 35.2936 40.2308H31.4192C29.5333 40.2017 28.5711 38.2524 28.5454 34.3538V29.0295C28.5582 24.9563 29.4691 22.8907 31.2909 22.8325H35.0499L35.0371 22.1633M45.7881 43.373C46.0062 43.3439 46.2114 43.1693 46.3654 42.8202C46.5193 42.5001 46.5963 42.151 46.5963 41.7728V40.2017H42.9784C42.5037 40.2017 42.1317 40.0562 41.8495 39.7944C41.5544 39.5616 41.2593 39.0961 40.9514 38.4269C40.6691 37.7287 40.4639 37.0013 40.3356 36.2449C40.2073 35.5466 40.1431 34.6738 40.1431 33.5973V14.1624H42.9784V31.5316C42.9784 32.9282 43.235 33.6264 43.7354 33.6264H45.7367C45.9805 33.6264 46.1858 33.4518 46.3526 33.1027C46.5193 32.7827 46.5963 32.4335 46.5963 31.9971V14.1624H49.4059V42.8784C49.3931 45.0022 49.1494 46.7188 48.6875 47.9989C48.2128 49.2791 47.5713 49.9482 46.7503 49.9773H40.1431V43.373H45.7881M51.6254 33.6264H56.6674C57.1292 33.5973 57.373 33.1609 57.3858 32.3754V31.7935C57.3858 31.6189 57.3602 31.4443 57.3217 31.2407C57.2062 30.7461 57.0651 30.4842 56.9111 30.4842H54.3966C53.6525 30.4551 53.0238 29.8733 52.485 28.7386C51.9462 27.6912 51.6767 26.4401 51.6511 24.9272V20.0103C51.6767 16.1699 52.6005 14.2206 54.4094 14.1624H60.2596V20.7668H55.3075C54.7301 20.7668 54.4351 21.1741 54.4351 21.9887V22.6288C54.4351 23.4725 54.7301 23.8799 55.3331 23.8799H57.822C58.4891 23.909 59.0536 24.4908 59.5283 25.6255C60.003 26.7602 60.2468 28.0985 60.2724 29.6696V34.4701C60.2596 35.8085 59.9773 37.1759 59.4513 38.5142C59.1948 39.1834 58.9253 39.6198 58.6688 39.8817C58.3993 40.1144 58.0273 40.2308 57.5526 40.2308H51.6383L51.6254 33.6264M65.1091 32.3172C65.1091 32.6954 65.1861 32.9863 65.34 33.2191C65.4683 33.4809 65.6351 33.6264 65.8532 33.6264H68.0342C68.5217 33.6264 68.7783 33.19 68.7911 32.3172V30.4842C68.7911 29.4659 68.5345 28.9713 68.0085 28.9713H65.8532C65.571 28.9713 65.3785 29.0877 65.2631 29.2914C65.1604 29.5241 65.1091 29.9896 65.1091 30.6879V32.3172V32.3172ZM68.7911 22.1633C68.804 21.1741 68.5474 20.7086 68.0214 20.7377H62.3251V14.1624H68.7398C70.6129 14.2206 71.5623 16.2863 71.5879 20.3304V34.121C71.5751 35.8667 71.3313 37.2923 70.8823 38.456C70.4076 39.6489 69.7918 40.2308 69.0349 40.2308H65.1476C63.2617 40.2017 62.2995 38.2524 62.2738 34.3538V29.0295C62.2866 24.9563 63.1975 22.8907 65.0193 22.8325H68.7911V22.1633M73.8972 10.4093C73.91 8.63451 74.2051 7.20889 74.7696 6.13241C75.3213 5.05592 76.0397 4.47404 76.9378 4.44495H78.7339V10.8166H77.6434C77.0404 10.8457 76.7453 11.4857 76.7325 12.7659V14.1624H78.7339V20.7668H76.7325V40.2308H73.8972V10.4093ZM86.7779 22.0469V21.9015C86.7779 21.5523 86.7138 21.2614 86.5983 21.0577C86.47 20.8541 86.3032 20.7377 86.1108 20.7377H84.135C83.8785 20.7377 83.6732 20.9123 83.5192 21.2323C83.3268 21.5232 83.2242 21.9305 83.2242 22.4251V25.0727L86.7779 22.0469V22.0469ZM83.2755 31.3862V31.7935C83.2755 32.3172 83.3396 32.7536 83.4551 33.0445C83.5449 33.4228 83.6604 33.6264 83.8271 33.6264H89.6389V40.2308H83.4551C82.8906 40.2308 82.4544 40.1144 82.1465 39.8817C81.8129 39.6198 81.505 39.2125 81.2356 38.6306C80.9277 37.9323 80.7096 37.2341 80.607 36.4776C80.4915 35.7212 80.4274 34.7029 80.4274 33.4518L80.4017 20.2431C80.4274 16.2572 81.3511 14.2206 83.16 14.1624H86.9832C88.7408 14.2206 89.6389 16.3445 89.6645 20.4758V25.6837L83.2755 31.3862M95.6558 40.2308C95.2325 40.2308 94.8347 40.1435 94.4755 39.9689C94.1035 39.8235 93.7314 39.4452 93.3594 38.7761C92.9745 38.0196 92.7051 37.1468 92.5511 36.1867C92.3972 35.2557 92.3202 34.1792 92.3202 33.0154V20.7086C92.3074 19.7194 92.3458 18.8175 92.4485 18.061C92.5383 17.3046 92.7436 16.5481 93.0515 15.8208C93.3979 15.0643 93.7442 14.5406 94.1163 14.2788C94.4755 14.0751 94.8732 13.9587 95.3223 13.9587H99.6586V15.5007H95.4249C94.6808 15.5007 94.0906 15.8499 93.6544 16.5481C93.2182 17.3046 92.9873 18.6138 92.9873 20.4758V32.7827C92.9873 33.6555 93.0515 34.4992 93.1669 35.3139C93.2824 36.0994 93.4877 36.8268 93.7699 37.4377C94.0778 37.9614 94.3857 38.3106 94.6808 38.4269C94.9887 38.5724 95.3223 38.6597 95.6815 38.6597H99.7227V40.2017H95.6558M110.82 24.2581H105.137C104.457 24.2872 103.918 24.7818 103.533 25.6837C103.135 26.6147 102.943 27.8949 102.943 29.5241V33.4518C102.943 34.2083 102.981 34.9066 103.046 35.5466C103.123 36.2158 103.289 36.7977 103.572 37.2923C104.059 38.2233 104.611 38.6597 105.201 38.6597H108.665C110.102 38.6306 110.833 36.9141 110.833 33.4809L110.82 24.2581V24.2581ZM111.5 33.1318C111.5 34.121 111.462 34.9938 111.41 35.7503C111.32 36.594 111.128 37.3796 110.846 38.136C110.256 39.5616 109.512 40.2599 108.639 40.2017H105.252C104.367 40.2017 103.661 39.6198 103.11 38.4269C102.545 37.2632 102.263 35.6339 102.263 33.5391V29.5823C102.289 25.1018 103.276 22.8034 105.214 22.7161H110.846V20.9704C110.846 19.5448 110.666 18.2938 110.294 17.2173C110.063 16.519 109.794 16.0535 109.486 15.8208C109.178 15.6462 108.819 15.5298 108.434 15.5298H102.289V13.9878H108.113C108.652 13.9878 109.127 14.0751 109.563 14.2497C109.781 14.337 109.986 14.5406 110.179 14.8316C110.384 15.0934 110.564 15.5007 110.73 16.0244C111.256 17.5664 111.513 19.3121 111.5 21.2905V33.1318M117.863 15.5298C116.285 15.588 115.503 17.5373 115.541 21.3778V40.2017H114.861V21.4069C114.823 16.4608 115.862 13.9878 117.979 13.9878H118.736V15.5298H117.863ZM129.32 15.5298H123.957C123.573 15.5298 123.226 15.6171 122.918 15.8208C122.597 15.9953 122.277 16.4317 121.982 17.1591C121.699 17.8283 121.52 18.4974 121.443 19.1375C121.34 19.8067 121.302 20.5922 121.315 21.5232V33.5391C121.315 35.5466 121.571 36.885 122.084 37.6123C122.341 37.9614 122.623 38.1942 122.931 38.3688C123.239 38.5433 123.598 38.6597 123.97 38.6597H126.318C127.19 38.6597 127.909 38.1942 128.461 37.2923C129.012 36.4195 129.294 34.9356 129.32 32.8118V15.5298V15.5298ZM130 32.9281C129.936 37.9033 128.781 40.3472 126.523 40.2308H124.009C123.483 40.2308 123.008 40.1144 122.585 39.9398C122.148 39.678 121.738 39.0961 121.34 38.1651C121.045 37.3214 120.853 36.4776 120.776 35.6048C120.673 34.732 120.622 33.7719 120.647 32.7245V21.5232C120.673 16.4899 121.802 13.9587 124.009 14.0169H129.333V5.49234H130.013V32.9281" fill="#008AC9"/>
<path d="M1.21869 13.1733C1.43679 12.9405 1.66772 12.766 1.88582 12.6787C2.29636 8.25636 4.02832 4.93962 6.09385 4.93962C8.17221 4.93962 9.89134 8.25636 10.3019 12.6787C10.9434 12.9405 11.4694 13.5224 11.8671 14.3952C11.8799 13.5515 11.8671 12.7369 11.8286 11.9513C11.572 5.25966 9.09592 0.0227051 6.08102 0.0227051C2.97631 0.0227051 0.448927 5.60879 0.320634 12.5623C0.307804 13.1733 0.294975 13.7843 0.307804 14.4534C0.564392 13.9588 0.859467 13.5224 1.21869 13.1733Z" fill="#E3001B"/>
<path d="M9.45525 14.1625H2.54022C2.20665 14.1625 1.86026 14.337 1.51387 14.6862C1.16747 15.0353 0.885227 15.4426 0.667127 15.9372C0.243758 17.101 0.0128294 18.8175 0 21.0578V33.3064C0.0128294 35.5467 0.230929 37.2633 0.667127 38.427C0.898056 38.9216 1.16747 39.3289 1.51387 39.6781C1.87309 40.0272 2.21948 40.2018 2.54022 40.2018H9.45525C11.2385 40.1727 12.1494 37.9324 12.1751 33.5392V20.7959C12.1494 16.4027 11.2385 14.1916 9.45525 14.1625" fill="#E3001B"/>
</g>
<defs>
<clipPath id="clip0_804_227">
<rect width="130" height="50" fill="white"/>
</clipPath>
</defs>
</svg>
